HIERARCHY
ROOT MidHip
{
    OFFSET 0.0 0.0 0.0
    CHANNELS 6 Xposition Yposition Zposition Zrotation Xrotation Yrotation
    JOINT Spine
    {
        OFFSET 0.0 0.0 13.525266829950274
        CHANNELS 3 Zrotation Xrotation Yrotation
        JOINT MidShoulder
        {
            OFFSET 0.0 0.0 13.525266829950276
            CHANNELS 3 Zrotation Xrotation Yrotation
            JOINT Nose
            {
                OFFSET 0.0 0.0 11.061068562239756
                CHANNELS 3 Zrotation Xrotation Yrotation
                End Site
                {
                    OFFSET 0.0 0.0 4.424427424895902
                }
            }
            JOINT RightShoulder
            {
                OFFSET -8.874858376627879 0.0 0.0
                CHANNELS 3 Zrotation Xrotation Yrotation
                JOINT RightElbow
                {
                    OFFSET -12.847610864381727 0.0 0.0
                    CHANNELS 3 Zrotation Xrotation Yrotation
                    JOINT RightWrist
                    {
                        OFFSET -10.46900654659423 0.0 0.0
                        CHANNELS 3 Zrotation Xrotation Yrotation
                        End Site
                        {
                            OFFSET -2.9610822085532558 2.9610822085532558 0.0
                        }
                        End Site
                        {
                            OFFSET -4.187602618637692 0.0 0.0
                        }
                        End Site
                        {
                            OFFSET -2.9610822085532558 -2.9610822085532558 0.0
                        }
                    }
                }
            }
            JOINT LeftShoulder
            {
                OFFSET 8.874858376627879 0.0 0.0
                CHANNELS 3 Zrotation Xrotation Yrotation
                JOINT LeftElbow
                {
                    OFFSET 12.847610864381727 0.0 0.0
                    CHANNELS 3 Zrotation Xrotation Yrotation
                    JOINT LeftWrist
                    {
                        OFFSET 10.46900654659423 0.0 0.0
                        CHANNELS 3 Zrotation Xrotation Yrotation
                        End Site
                        {
                            OFFSET 2.9610822085532558 2.9610822085532558 0.0
                        }
                        End Site
                        {
                            OFFSET 4.187602618637692 0.0 0.0
                        }
                        End Site
                        {
                            OFFSET 2.9610822085532558 -2.9610822085532558 0.0
                        }
                    }
                }
            }
        }
    }
    JOINT RightHip
    {
        OFFSET -4.994809041163074 0.0 0.0
        CHANNELS 3 Zrotation Xrotation Yrotation
        JOINT RightKnee
        {
            OFFSET 0.0 0.0 -18.097207946551297
            CHANNELS 3 Zrotation Xrotation Yrotation
            JOINT RightAnkle
            {
                OFFSET 0.0 0.0 -18.889991687854145
                CHANNELS 3 Zrotation Xrotation Yrotation
                End Site
                {
                    OFFSET 0.0 5.342896487615673 -5.342896487615673
                }
                End Site
                {
                    OFFSET 0.0 -5.342896487615673 -5.342896487615673
                }
            }
        }
    }
    JOINT LeftHip
    {
        OFFSET 4.994809041163074 0.0 0.0
        CHANNELS 3 Zrotation Xrotation Yrotation
        JOINT LeftKnee
        {
            OFFSET 0.0 0.0 -18.097207946551297
            CHANNELS 3 Zrotation Xrotation Yrotation
            JOINT LeftAnkle
            {
                OFFSET 0.0 0.0 -18.889991687854145
                CHANNELS 3 Zrotation Xrotation Yrotation
                End Site
                {
                    OFFSET 0.0 5.342896487615673 -5.342896487615673
                }
                End Site
                {
                    OFFSET 0.0 -5.342896487615673 -5.342896487615673
                }
            }
        }
    }
}
MOTION
Frames: 6
Frame Time: 0.016683350016683352
-1.7520351240651628 45.2835972504334 48.296657127886576 78.2262667883697 -43.15116206340388 78.14089324879598 -4.068450303475271 -14.616103086360107 -9.504493980737475 18.04650725846954 -3.141194585596189e-15 4.988232725130996e-16 0.0 0.0 0.0 25.7281691167497 12.620768575543968 -68.47027676335476 100.6436012686507 4.4785949171910856e-15 -4.1718548784582065e-16 40.13821289115291 1.8291985502097619 -1.5417801742861597 -49.12333014653281 6.837327661987351 84.1658539482744 -94.77118672347885 1.3669481868863853e-14 -3.932407287195999e-15 -18.64538644157759 -0.9592947941879569 179.67633401100784 -4.523025362796429 -16.16479171119875 -1.2209323207204845 4.445696020847233 16.525900440144117 4.397080253455119 0.0 0.0 0.0 -110.1326240156707 -73.84020916922185 -129.9831212311529 -122.33067708603085 66.03517403244055 152.19782788980433 0.0 0.0 1.5902773407317588e-15
-1.700904948972157 45.371580410078714 48.24212519174904 78.476041420576 -42.116111882217915 78.36698733944966 -4.261187765709793 -14.887948878759817 -9.66732566382995 17.16379932532919 1.2579775313401643e-14 -1.8984473584491338e-15 0.0 -1.5902773407317588e-15 0.0 29.98309759281573 12.462184226286377 -72.6263539062926 102.91070071119948 -3.478524833946993e-15 -7.380888034907521e-16 29.27476337531256 8.278127542592404 -4.6145432871978285 -47.29259006052332 10.42383859845223 85.2652324647897 -101.8826513221798 -8.016472370262838e-15 -9.878816733054846e-15 -9.966909391984476 -5.466685136483515 179.0408774684776 -4.56845117512226 -15.906757891136682 -0.8363065402768726 4.621225553386208 16.285996162487887 4.111201361610006 0.0 0.0 0.0 -110.93322889598183 -73.34075953108857 -129.00009092028873 -121.71785974664948 68.10553123808391 151.79839033535214 0.0 0.0 1.5902773407317584e-15
-1.694235539774435 45.418931773752234 48.13572412230654 78.86822604012006 -39.83428160281488 78.44667372779661 -4.4716503663442335 -15.391759919276259 -9.484452185527111 15.252611691662176 -2.3082296110254404e-15 6.726939606662364e-15 0.0 0.0 0.0 26.938388873612706 13.21098459835856 -72.59374698158088 95.27747499161164 2.2466071135670537e-15 -1.035399350958784e-16 85.73533541998226 -6.601829366982644 57.03206941774339 -45.70039789595614 12.151575178845436 86.16275171078411 -99.92972863098267 4.091829733671857e-15 4.870384148889783e-15 -19.759809755940502 -5.797362890549365 177.92187695891184 -4.802653399146546 -16.468882294005375 -0.010098534441589594 5.465527381975921 17.827133552577354 2.8832488815027375 0.0 0.0 0.0 -111.2710104333561 -73.0951055275376 -127.28394606969333 -119.84306770097918 70.74692767371414 150.3095410473731 -6.3611093629270335e-15 0.0 0.0
-1.6869510253297355 45.47303326734594 48.115669164329375 78.9739685836828 -40.07559615320665 78.73686998315148 -4.49665077656918 -15.253240518328544 -10.000637670871841 15.874584293241577 6.300168629959995e-15 -8.784005698916553e-16 0.0 0.0 0.0 27.228451265188333 14.038192183388217 -72.67705407082529 89.28500939121541 0.0 0.0 67.7131296308399 -18.72233509407228 38.06615159038704 -44.090212856825715 10.504446983218704 86.35024238083867 -94.28553367224994 -8.989676826208482e-15 -3.3635578568855175e-16 -17.055963220424402 -0.5281025292422699 179.83798137661256 -4.880849811386166 -16.485435754542145 -0.7901059697720582 5.41795352117258 18.27338176516939 3.836838421375899 -3.1805546814635168e-15 0.0 0.0 -109.58105319254115 -73.030201348551 -125.44618810212188 -112.92094672593137 72.00418949913075 143.11745191172437 3.1805546814635176e-15 -8.827812596100317e-32 -3.1805546814635176e-15
-1.6590678962772358 45.50197725784156 48.07318665904457 78.9673148284336 -39.848730618777914 78.8209711653361 -4.728516065090534 -15.508207174079212 -10.359407001509489 15.296820686049198 -7.880646717967174e-15 1.0582805949818063e-15 -6.3611093629270335e-15 -1.5902773407317584e-15 -8.827812596100317e-32 29.96884186385788 14.490684819901947 -75.49948317605056 87.33911831571326 4.4445527903146635e-15 2.3528218586528957e-15 31.60365353625873 -10.064582984528263 6.137278495525186 -43.33292237870451 10.242686049252551 86.42899876570252 -90.68513630078512 -4.471010146992851e-15 -4.524796193488159e-15 -18.258228901305774 -4.240851564402875 178.6024559058465 -5.244011052805866 -17.100448740922612 -1.1306713438100113 5.94274422385214 19.609581665356664 4.161053680375579 0.0 0.0 0.0 -108.17037095699035 -72.6367828251191 -123.02246966899688 -104.98084642214074 73.84926492417308 134.63067882315625 -3.1805546814635168e-15 0.0 0.0
-1.656081180102912 45.53704706805982 48.03791961507615 78.95138988102259 -41.19291973470206 78.76633562577408 -4.922868578207023 -14.901856870952912 -11.006116832450237 16.092391425986367 9.241605652697191e-15 -1.4155129574479567e-14 6.361109362927033e-15 0.0 0.0 41.76426045036931 15.20885935170263 -81.2192975071313 82.80942078185515 -2.225445682457458e-15 -4.928361403735049e-15 26.019688243725867 -5.398379131285587 2.629517145479729 -41.393175944135606 10.284460661575675 85.56225481401165 -90.13430152617939 8.97487437789517e-15 1.8002465197082884e-14 -16.30565535207214 3.3752976584795715 -179.01330078281194 -5.859264009835148 -17.56623461653676 -1.903905922236276 6.598575970271152 20.747156485664124 4.78274514522456 -3.1805546814635168e-15 -1.5902773407317584e-15 3.1805546814635168e-15 -101.12304509187432 -71.80707464315583 -117.13432865351349 -91.19694027253007 73.44213834674353 121.149245955634 0.0 0.0 0.0
